# ProBuilder 5.1.1
# https://unity3d.com/unity/features/worldbuilding/probuilder
# 28/12/2023 13:40:02

mtllib ./Model_[A].mtl
o Model [A]

g Model [A]
v 5 3 -5
v 5 3 -4
v 4 3 -5
v 4 3 -4
v 5 3 -3
v 4 3 -3
v 5 3 -2
v 4 3 -2
v 5 3 -1
v 4 3 -1
v 5 3 0
v 4 3 0
v 5 3 1
v 4 3 1
v 5 3 2
v 4 3 2
v 5 3 3
v 4 3 3
v 5 3 4
v 4 3 4
v 5 3 5
v 4 3 5
v 3 3 -5
v 3 3 -4
v 4 0 -4
v 4 0 -3
v 3 0 -4
v 3 0 -3
v 4 0 -2
v 3 0 -2
v 3 3 -2
v 3 3 -1
v 4 0 -1
v 4 0 0
v 3 0 -1
v 3 0 0
v 4 0 1
v 3 0 1
v 3 3 1
v 3 3 2
v 4 0 2
v 4 0 3
v 3 0 2
v 3 0 3
v 4 0 4
v 3 0 4
v 3 3 4
v 3 3 5
v 2 3 -5
v 2 3 -4
v 2 0 -4
v 2 0 -3
v 2 0 -2
v 2 0 -1
v 2 0 0
v 2 0 1
v 2 0 2
v 2 0 3
v 2 0 4
v 2 3 4
v 2 3 5
v 1 3 -5
v 1 3 -4
v 1 0 -4
v 1 0 -3
v 1 0 -2
v 1 0 -1
v 1 0 0
v 1 0 1
v 1 0 2
v 1 0 3
v 1 0 4
v 1 3 4
v 1 3 5
v 0 3 -5
v 0 3 -4
v 0 0 -4
v 0 0 -3
v 0 0 -2
v 0 0 -1
v 0 0 0
v 0 0 1
v 0 0 2
v 0 0 3
v 0 0 4
v 0 3 4
v 0 3 5
v -1 3 -5
v -1 3 -4
v -1 0 -4
v -1 0 -3
v -1 0 -2
v -1 0 -1
v -1 0 0
v -1 0 1
v -1 0 2
v -1 0 3
v -1 0 4
v -1 3 4
v -1 3 5
v -2 3 -5
v -2 3 -4
v -2 0 -4
v -2 0 -3
v -2 0 -2
v -2 0 -1
v -2 0 0
v -2 0 1
v -2 0 2
v -2 0 3
v -2 0 4
v -2 3 4
v -2 3 5
v -3 3 -5
v -3 3 -4
v -3 0 -4
v -3 0 -3
v -3 0 -2
v -3 0 -1
v -3 0 0
v -3 0 1
v -3 0 2
v -3 0 3
v -3 0 4
v -3 3 4
v -3 3 5
v -4 3 -5
v -4 3 -4
v -4 0 -4
v -4 0 -3
v -4 0 -2
v -3 3 -2
v -3 3 -1
v -4 3 -2
v -4 3 -1
v -4 0 -1
v -4 0 0
v -4 0 1
v -3 3 1
v -3 3 2
v -4 3 1
v -4 3 2
v -4 0 2
v -4 0 3
v -4 0 4
v -4 3 4
v -4 3 5
v -5 3 -5
v -5 3 -4
v -4 3 -3
v -5 3 -3
v -5 3 -2
v -5 3 -1
v -4 3 0
v -5 3 0
v -5 3 1
v -5 3 2
v -4 3 3
v -5 3 3
v -5 3 4
v -5 3 5
v 5 0 -4
v 5 0 -3
v -5 0 -5
v -4 0 -5
v -5 0 -4
v 5 0 -5
v -3 0 -5
v -2 0 -5
v -1 0 -5
v 0 0 -5
v 1 0 -5
v 2 0 -5
v 3 0 -5
v 4 0 -5
v 5 0 5
v 4 0 5
v 5 0 -2
v 5 0 -1
v 5 0 0
v 5 0 1
v 5 0 2
v 5 0 3
v 5 0 4
v 3 0 5
v 2 0 5
v 1 0 5
v 0 0 5
v -1 0 5
v -2 0 5
v -3 0 5
v -4 0 5
v -5 0 4
v -5 0 3
v -5 0 5
v -5 0 2
v -5 0 1
v -5 0 0
v -5 0 -1
v -5 0 -2
v -5 0 -3

vt -5 -5
vt -5 -4
vt -4 -5
vt -4 -4
vt -5 -3
vt -4 -3
vt -5 -2
vt -4 -2
vt -5 -1
vt -4 -1
vt -5 0
vt -4 0
vt -5 1
vt -4 1
vt -5 2
vt -4 2
vt -5 3
vt -4 3
vt -5 4
vt -4 4
vt -5 5
vt -4 5
vt -3 -5
vt -3 -4
vt -3 -3
vt -3 -2
vt -3 -1
vt -3 0
vt -3 1
vt -3 2
vt -3 3
vt -3 4
vt -3 5
vt -2 -5
vt -2 -4
vt -2 -3
vt -2 -2
vt -2 -1
vt -2 0
vt -2 1
vt -2 2
vt -2 3
vt -2 4
vt -2 5
vt -1 -5
vt -1 -4
vt -1 -3
vt -1 -2
vt -1 -1
vt -1 0
vt -1 1
vt -1 2
vt -1 3
vt -1 4
vt -1 5
vt 0 -5
vt 0 -4
vt 0 -3
vt 0 -2
vt 0 -1
vt 0 0
vt 0 1
vt 0 2
vt 0 3
vt 0 4
vt 0 5
vt 1 -5
vt 1 -4
vt 1 -3
vt 1 -2
vt 1 -1
vt 1 0
vt 1 1
vt 1 2
vt 1 3
vt 1 4
vt 1 5
vt 2 -5
vt 2 -4
vt 2 -3
vt 2 -2
vt 2 -1
vt 2 0
vt 2 1
vt 2 2
vt 2 3
vt 2 4
vt 2 5
vt 3 -5
vt 3 -4
vt 3 -3
vt 3 -2
vt 3 -1
vt 3 0
vt 3 1
vt 3 2
vt 3 3
vt 3 4
vt 3 5
vt 4 -5
vt 4 -4
vt 4 -3
vt 4 -2
vt 4 -1
vt 4 0
vt 4 1
vt 4 2
vt 4 3
vt 4 4
vt 4 5
vt 5 -5
vt 5 -4
vt 5 -3
vt 5 -2
vt 5 -1
vt 5 0
vt 5 1
vt 5 2
vt 5 3
vt 5 4
vt 5 5

vn 0 1 0
vn 1 0 0
vn 0 0 -1
vn -1 0 0
vn 0 0 1

usemtl ProBuilderDefault
f 3/3/1 4/4/1 2/2/1 1/1/1
f 4/4/1 6/6/1 5/5/1 2/2/1
f 6/6/1 8/8/1 7/7/1 5/5/1
f 8/8/1 10/10/1 9/9/1 7/7/1
f 10/10/1 12/12/1 11/11/1 9/9/1
f 12/12/1 14/14/1 13/13/1 11/11/1
f 14/14/1 16/16/1 15/15/1 13/13/1
f 16/16/1 18/18/1 17/17/1 15/15/1
f 18/18/1 20/20/1 19/19/1 17/17/1
f 20/20/1 22/22/1 21/21/1 19/19/1
f 23/23/1 24/24/1 4/4/1 3/3/1
f 27/24/1 28/25/1 26/6/1 25/4/1
f 28/25/1 30/26/1 29/8/1 26/6/1
f 31/26/1 32/27/1 10/10/1 8/8/1
f 35/27/1 36/28/1 34/12/1 33/10/1
f 36/28/1 38/29/1 37/14/1 34/12/1
f 39/29/1 40/30/1 16/16/1 14/14/1
f 43/30/1 44/31/1 42/18/1 41/16/1
f 44/31/1 46/32/1 45/20/1 42/18/1
f 47/32/1 48/33/1 22/22/1 20/20/1
f 49/34/1 50/35/1 24/24/1 23/23/1
f 51/35/1 52/36/1 28/25/1 27/24/1
f 52/36/1 53/37/1 30/26/1 28/25/1
f 53/37/1 54/38/1 35/27/1 30/26/1
f 54/38/1 55/39/1 36/28/1 35/27/1
f 55/39/1 56/40/1 38/29/1 36/28/1
f 56/40/1 57/41/1 43/30/1 38/29/1
f 57/41/1 58/42/1 44/31/1 43/30/1
f 58/42/1 59/43/1 46/32/1 44/31/1
f 60/43/1 61/44/1 48/33/1 47/32/1
f 62/45/1 63/46/1 50/35/1 49/34/1
f 64/46/1 65/47/1 52/36/1 51/35/1
f 65/47/1 66/48/1 53/37/1 52/36/1
f 66/48/1 67/49/1 54/38/1 53/37/1
f 67/49/1 68/50/1 55/39/1 54/38/1
f 68/50/1 69/51/1 56/40/1 55/39/1
f 69/51/1 70/52/1 57/41/1 56/40/1
f 70/52/1 71/53/1 58/42/1 57/41/1
f 71/53/1 72/54/1 59/43/1 58/42/1
f 73/54/1 74/55/1 61/44/1 60/43/1
f 75/56/1 76/57/1 63/46/1 62/45/1
f 77/57/1 78/58/1 65/47/1 64/46/1
f 78/58/1 79/59/1 66/48/1 65/47/1
f 79/59/1 80/60/1 67/49/1 66/48/1
f 80/60/1 81/61/1 68/50/1 67/49/1
f 81/61/1 82/62/1 69/51/1 68/50/1
f 82/62/1 83/63/1 70/52/1 69/51/1
f 83/63/1 84/64/1 71/53/1 70/52/1
f 84/64/1 85/65/1 72/54/1 71/53/1
f 86/65/1 87/66/1 74/55/1 73/54/1
f 88/67/1 89/68/1 76/57/1 75/56/1
f 90/68/1 91/69/1 78/58/1 77/57/1
f 91/69/1 92/70/1 79/59/1 78/58/1
f 92/70/1 93/71/1 80/60/1 79/59/1
f 93/71/1 94/72/1 81/61/1 80/60/1
f 94/72/1 95/73/1 82/62/1 81/61/1
f 95/73/1 96/74/1 83/63/1 82/62/1
f 96/74/1 97/75/1 84/64/1 83/63/1
f 97/75/1 98/76/1 85/65/1 84/64/1
f 99/76/1 100/77/1 87/66/1 86/65/1
f 101/78/1 102/79/1 89/68/1 88/67/1
f 103/79/1 104/80/1 91/69/1 90/68/1
f 104/80/1 105/81/1 92/70/1 91/69/1
f 105/81/1 106/82/1 93/71/1 92/70/1
f 106/82/1 107/83/1 94/72/1 93/71/1
f 107/83/1 108/84/1 95/73/1 94/72/1
f 108/84/1 109/85/1 96/74/1 95/73/1
f 109/85/1 110/86/1 97/75/1 96/74/1
f 110/86/1 111/87/1 98/76/1 97/75/1
f 112/87/1 113/88/1 100/77/1 99/76/1
f 114/89/1 115/90/1 102/79/1 101/78/1
f 116/90/1 117/91/1 104/80/1 103/79/1
f 117/91/1 118/92/1 105/81/1 104/80/1
f 118/92/1 119/93/1 106/82/1 105/81/1
f 119/93/1 120/94/1 107/83/1 106/82/1
f 120/94/1 121/95/1 108/84/1 107/83/1
f 121/95/1 122/96/1 109/85/1 108/84/1
f 122/96/1 123/97/1 110/86/1 109/85/1
f 123/97/1 124/98/1 111/87/1 110/86/1
f 125/98/1 126/99/1 113/88/1 112/87/1
f 127/100/1 128/101/1 115/90/1 114/89/1
f 129/101/1 130/102/1 117/91/1 116/90/1
f 130/102/1 131/103/1 118/92/1 117/91/1
f 134/103/1 135/104/1 133/93/1 132/92/1
f 136/104/1 137/105/1 120/94/1 119/93/1
f 137/105/1 138/106/1 121/95/1 120/94/1
f 141/106/1 142/107/1 140/96/1 139/95/1
f 143/107/1 144/108/1 123/97/1 122/96/1
f 144/108/1 145/109/1 124/98/1 123/97/1
f 146/109/1 147/110/1 126/99/1 125/98/1
f 148/111/1 149/112/1 128/101/1 127/100/1
f 149/112/1 151/113/1 150/102/1 128/101/1
f 151/113/1 152/114/1 134/103/1 150/102/1
f 152/114/1 153/115/1 135/104/1 134/103/1
f 153/115/1 155/116/1 154/105/1 135/104/1
f 155/116/1 156/117/1 141/106/1 154/105/1
f 156/117/1 157/118/1 142/107/1 141/106/1
f 157/118/1 159/119/1 158/108/1 142/107/1
f 159/119/1 160/120/1 146/109/1 158/108/1
f 160/120/1 161/121/1 147/110/1 146/109/1
f 2/108/2 5/97/2 163/94/2 162/105/2
f 148/119/3 127/108/3 165/105/3 164/116/3
f 132/86/2 133/75/2 119/72/2 118/83/2
f 149/18/4 148/17/4 164/11/4 166/12/4
f 1/119/2 2/108/2 162/105/2 167/116/2
f 127/108/3 114/97/3 168/94/3 165/105/3
f 115/31/5 128/18/5 129/12/5 116/28/5
f 114/97/3 101/86/3 169/83/3 168/94/3
f 102/42/5 115/31/5 116/28/5 103/39/5
f 101/86/3 88/75/3 170/72/3 169/83/3
f 89/53/5 102/42/5 103/39/5 90/50/5
f 88/75/3 75/64/3 171/61/3 170/72/3
f 76/64/5 89/53/5 90/50/5 77/61/5
f 75/64/3 62/53/3 172/50/3 171/61/3
f 63/75/5 76/64/5 77/61/5 64/72/5
f 62/53/3 49/42/3 173/39/3 172/50/3
f 50/86/5 63/75/5 64/72/5 51/83/5
f 49/42/3 23/31/3 174/28/3 173/39/3
f 24/97/5 50/86/5 51/83/5 27/94/5
f 23/31/3 3/18/3 175/12/3 174/28/3
f 4/108/5 24/97/5 27/94/5 25/105/5
f 3/18/3 1/17/3 167/11/3 175/12/3
f 21/119/5 22/108/5 177/105/5 176/116/5
f 6/31/4 4/18/4 25/12/4 26/28/4
f 5/97/2 7/86/2 178/83/2 163/94/2
f 8/42/4 6/31/4 26/28/4 29/39/4
f 7/86/2 9/75/2 179/72/2 178/83/2
f 31/31/3 8/18/3 29/12/3 30/28/3
f 9/75/2 11/64/2 180/61/2 179/72/2
f 12/64/4 10/53/4 33/50/4 34/61/4
f 11/64/2 13/53/2 181/50/2 180/61/2
f 14/75/4 12/64/4 34/61/4 37/72/4
f 13/53/2 15/42/2 182/39/2 181/50/2
f 39/31/3 14/18/3 37/12/3 38/28/3
f 15/42/2 17/31/2 183/28/2 182/39/2
f 18/97/4 16/86/4 41/83/4 42/94/4
f 17/31/2 19/18/2 184/12/2 183/28/2
f 20/108/4 18/97/4 42/94/4 45/105/4
f 19/18/2 21/17/2 176/11/2 184/12/2
f 47/31/3 20/18/3 45/12/3 46/28/3
f 22/108/5 48/97/5 185/94/5 177/105/5
f 60/42/3 47/31/3 46/28/3 59/39/3
f 48/97/5 61/86/5 186/83/5 185/94/5
f 73/53/3 60/42/3 59/39/3 72/50/3
f 61/86/5 74/75/5 187/72/5 186/83/5
f 86/64/3 73/53/3 72/50/3 85/61/3
f 74/75/5 87/64/5 188/61/5 187/72/5
f 99/75/3 86/64/3 85/61/3 98/72/3
f 87/64/5 100/53/5 189/50/5 188/61/5
f 112/86/3 99/75/3 98/72/3 111/83/3
f 100/53/5 113/42/5 190/39/5 189/50/5
f 125/97/3 112/86/3 111/83/3 124/94/3
f 113/42/5 126/31/5 191/28/5 190/39/5
f 146/108/3 125/97/3 124/94/3 145/105/3
f 126/31/5 147/18/5 192/12/5 191/28/5
f 160/108/4 159/97/4 194/94/4 193/105/4
f 147/18/5 161/17/5 195/11/5 192/12/5
f 161/119/4 160/108/4 193/105/4 195/116/4
f 158/31/2 146/18/2 145/12/2 144/28/2
f 159/97/4 157/86/4 196/83/4 194/94/4
f 142/42/2 158/31/2 144/28/2 143/39/2
f 157/86/4 156/75/4 197/72/4 196/83/4
f 16/108/5 40/97/5 43/94/5 41/105/5
f 156/75/4 155/64/4 198/61/4 197/72/4
f 154/64/2 141/53/2 138/50/2 137/61/2
f 155/64/4 153/53/4 199/50/4 198/61/4
f 135/75/2 154/64/2 137/61/2 136/72/2
f 153/53/4 152/42/4 200/39/4 199/50/4
f 139/53/2 140/42/2 122/39/2 121/50/2
f 152/42/4 151/31/4 201/28/4 200/39/4
f 150/97/2 134/86/2 131/83/2 130/94/2
f 151/31/4 149/18/4 166/12/4 201/28/4
f 128/108/2 150/97/2 130/94/2 129/105/2
f 134/108/3 132/97/3 118/94/3 131/105/3
f 133/31/5 135/18/5 136/12/5 119/28/5
f 141/108/3 139/97/3 121/94/3 138/105/3
f 140/31/5 142/18/5 143/12/5 122/28/5
f 40/86/4 39/75/4 38/72/4 43/83/4
f 10/108/5 32/97/5 35/94/5 33/105/5
f 32/53/4 31/42/4 30/39/4 35/50/4

