# ProBuilder 5.1.1
# https://unity3d.com/unity/features/worldbuilding/probuilder
# 28/12/2023 14:27:04

mtllib ./Model_[X].mtl
o Model [X]

g Model [X]
v 7 2.99995 -2.5
v 7 2.99995 -1.5
v 6 2.99995 -2.5
v 6 2.99995 -1.5
v 7 2.99995 -0.5
v 6 2.99995 -0.5
v 7 2.99995 0.5
v 6 2.99995 0.5
v 7 2.99995 1.5
v 6 2.99995 1.5
v 6 2.99995 -4.5
v 6 2.99995 -3.5
v 5 2.99995 -4.5
v 5 2.99995 -3.5
v 5 2.99995 -2.5
v 5 2.99995 -1.5
v 6 4.994869E-05 -1.5
v 6 4.994869E-05 -0.5
v 5 4.994869E-05 -1.5
v 5 4.994869E-05 -0.5
v 6 4.994869E-05 0.5
v 5 4.994869E-05 0.5
v 5 2.99995 0.5
v 5 2.99995 1.5
v 6 2.99995 2.5
v 5 2.99995 2.5
v 6 2.99995 3.5
v 5 2.99995 3.5
v 4 2.99995 -4.5
v 4 2.99995 -3.5
v 5 4.994869E-05 -3.5
v 5 4.994869E-05 -2.5
v 4 4.994869E-05 -3.5
v 4 4.994869E-05 -2.5
v 4 4.994869E-05 -1.5
v 4 4.994869E-05 -0.5
v 4 4.994869E-05 0.5
v 5 4.994869E-05 1.5
v 4 4.994869E-05 1.5
v 5 4.994869E-05 2.5
v 4 4.994869E-05 2.5
v 4 2.99995 2.5
v 4 2.99995 3.5
v 3 2.99995 -4.5
v 3 2.99995 -3.5
v 3 4.994869E-05 -3.5
v 3 4.994869E-05 -2.5
v 3 4.994869E-05 -1.5
v 3 4.994869E-05 -0.5
v 3 4.994869E-05 0.5
v 3 4.994869E-05 1.5
v 3 4.994869E-05 2.5
v 3 2.99995 2.5
v 3 2.99995 3.5
v 2 2.99995 -4.5
v 2 2.99995 -3.5
v 2 4.994869E-05 -3.5
v 2 4.994869E-05 -2.5
v 2 4.994869E-05 -1.5
v 2 4.994869E-05 -0.5
v 2 4.994869E-05 0.5
v 2 4.994869E-05 1.5
v 2 4.994869E-05 2.5
v 2 2.99995 2.5
v 2 2.99995 3.5
v 1 2.99995 -4.5
v 1 2.99995 -3.5
v 1 4.994869E-05 -3.5
v 1 4.994869E-05 -2.5
v 1 4.994869E-05 -1.5
v 1 4.994869E-05 -0.5
v 1 4.994869E-05 0.5
v 1 4.994869E-05 1.5
v 1 4.994869E-05 2.5
v 1 2.99995 2.5
v 1 2.99995 3.5
v 2 2.99995 4.5
v 1 2.99995 4.5
v 0 2.99995 -4.5
v 0 2.99995 -3.5
v 0 4.994869E-05 -3.5
v 0 4.994869E-05 -2.5
v 0 4.994869E-05 -1.5
v 0 4.994869E-05 -0.5
v 0 4.994869E-05 0.5
v 0 4.994869E-05 1.5
v 0 4.994869E-05 2.5
v 1 4.994869E-05 3.5
v 0 4.994869E-05 3.5
v 0 2.99995 3.5
v 0 2.99995 4.5
v -1 2.99995 -4.5
v -1 2.99995 -3.5
v -1 4.994869E-05 -3.5
v -1 4.994869E-05 -2.5
v -1 4.994869E-05 -1.5
v -1 4.994869E-05 -0.5
v -1 4.994869E-05 0.5
v -1 4.994869E-05 1.5
v -1 4.994869E-05 2.5
v -1 4.994869E-05 3.5
v -1 2.99995 3.5
v -1 2.99995 4.5
v -2 2.99995 -4.5
v -2 2.99995 -3.5
v -2 4.994869E-05 -3.5
v -2 4.994869E-05 -2.5
v -2 4.994869E-05 -1.5
v -2 4.994869E-05 -0.5
v -2 4.994869E-05 0.5
v -2 4.994869E-05 1.5
v -2 4.994869E-05 2.5
v -1 2.99995 2.5
v -2 2.99995 2.5
v -2 2.99995 3.5
v -2 2.99995 4.5
v -3 2.99995 -4.5
v -3 2.99995 -3.5
v -3 4.994869E-05 -3.5
v -3 4.994869E-05 -2.5
v -3 4.994869E-05 -1.5
v -3 4.994869E-05 -0.5
v -3 4.994869E-05 0.5
v -3 4.994869E-05 1.5
v -3 4.994869E-05 2.5
v -3 2.99995 2.5
v -3 2.99995 3.5
v -4 2.99995 -4.5
v -4 2.99995 -3.5
v -4 4.994869E-05 -3.5
v -4 4.994869E-05 -2.5
v -4 4.994869E-05 -1.5
v -4 4.994869E-05 -0.5
v -4 4.994869E-05 0.5
v -4 4.994869E-05 1.5
v -4 4.994869E-05 2.5
v -4 2.99995 2.5
v -4 2.99995 3.5
v -5 2.99995 -4.5
v -5 2.99995 -3.5
v -5 4.994869E-05 -3.5
v -5 4.994869E-05 -2.5
v -5 4.994869E-05 -1.5
v -5 4.994869E-05 -0.5
v -5 4.994869E-05 0.5
v -5 4.994869E-05 1.5
v -5 4.994869E-05 2.5
v -5 2.99995 2.5
v -5 2.99995 3.5
v -6 2.99995 -4.5
v -6 2.99995 -3.5
v -5 2.99995 -2.5
v -6 2.99995 -2.5
v -5 2.99995 -1.5
v -6 2.99995 -1.5
v -6 4.994869E-05 -1.5
v -6 4.994869E-05 -0.5
v -6 4.994869E-05 0.5
v -5 2.99995 0.5
v -5 2.99995 1.5
v -6 2.99995 0.5
v -6 2.99995 1.5
v -6 2.99995 2.5
v -6 2.99995 3.5
v -7 2.99995 -2.5
v -7 2.99995 -1.5
v -6 2.99995 -0.5
v -7 2.99995 -0.5
v -7 2.99995 0.5
v -7 2.99995 1.5
v -6 4.994869E-05 -3.5
v -6 4.994869E-05 -4.5
v -6 4.994869E-05 -2.5
v -7 4.994869E-05 -2.5
v -6 4.994869E-05 1.5
v -7 4.994869E-05 1.5
v -7 4.994869E-05 -1.5
v -7 4.994869E-05 -0.5
v -7 4.994869E-05 0.5
v -5 4.994869E-05 3.5
v -6 4.994869E-05 3.5
v -6 4.994869E-05 2.5
v 6 4.994869E-05 2.5
v 6 4.994869E-05 3.5
v -4 4.994869E-05 3.5
v -3 4.994869E-05 3.5
v -2 4.994869E-05 3.5
v -1 4.994869E-05 4.5
v -2 4.994869E-05 4.5
v 2 4.994869E-05 3.5
v 2 4.994869E-05 4.5
v 0 4.994869E-05 4.5
v 1 4.994869E-05 4.5
v 6 4.994869E-05 1.5
v 3 4.994869E-05 3.5
v 4 4.994869E-05 3.5
v 5 4.994869E-05 3.5
v 7 4.994869E-05 -0.5
v 7 4.994869E-05 0.5
v 7 4.994869E-05 1.5
v 7 4.994869E-05 -1.5
v 7 4.994869E-05 -2.5
v 6 4.994869E-05 -2.5
v 6 4.994869E-05 -3.5
v 4 4.994869E-05 -4.5
v 5 4.994869E-05 -4.5
v 6 4.994869E-05 -4.5
v 3 4.994869E-05 -4.5
v 2 4.994869E-05 -4.5
v 1 4.994869E-05 -4.5
v 0 4.994869E-05 -4.5
v -1 4.994869E-05 -4.5
v -2 4.994869E-05 -4.5
v -3 4.994869E-05 -4.5
v -4 4.994869E-05 -4.5
v -5 4.994869E-05 -4.5

vt 0 0
vt 0 1
vt 1 0
vt 1 1
vt 1 -0.9999501
vt 0 -0.9999501
vt 1 1.99995
vt 0 1.99995

vn 0 1 0
vn 1 0 0
vn -1 0 0
vn 0 0 1
vn 0 0 -1

usemtl ProBuilderDefault
f 3/3/1 4/4/1 2/2/1 1/1/1
f 4/3/1 6/4/1 5/2/1 2/1/1
f 6/3/1 8/4/1 7/2/1 5/1/1
f 8/3/1 10/4/1 9/2/1 7/1/1
f 13/3/1 14/4/1 12/2/1 11/1/1
f 14/3/1 15/4/1 3/2/1 12/1/1
f 15/3/1 16/4/1 4/2/1 3/1/1
f 19/3/1 20/4/1 18/2/1 17/1/1
f 20/3/1 22/4/1 21/2/1 18/1/1
f 23/3/1 24/4/1 10/2/1 8/1/1
f 24/3/1 26/4/1 25/2/1 10/1/1
f 26/3/1 28/4/1 27/2/1 25/1/1
f 29/3/1 30/4/1 14/2/1 13/1/1
f 33/3/1 34/4/1 32/2/1 31/1/1
f 34/3/1 35/4/1 19/2/1 32/1/1
f 35/3/1 36/4/1 20/2/1 19/1/1
f 36/3/1 37/4/1 22/2/1 20/1/1
f 37/3/1 39/4/1 38/2/1 22/1/1
f 39/3/1 41/4/1 40/2/1 38/1/1
f 42/3/1 43/4/1 28/2/1 26/1/1
f 44/3/1 45/4/1 30/2/1 29/1/1
f 46/3/1 47/4/1 34/2/1 33/1/1
f 47/3/1 48/4/1 35/2/1 34/1/1
f 48/3/1 49/4/1 36/2/1 35/1/1
f 49/3/1 50/4/1 37/2/1 36/1/1
f 50/3/1 51/4/1 39/2/1 37/1/1
f 51/3/1 52/4/1 41/2/1 39/1/1
f 53/3/1 54/4/1 43/2/1 42/1/1
f 55/3/1 56/4/1 45/2/1 44/1/1
f 57/3/1 58/4/1 47/2/1 46/1/1
f 58/3/1 59/4/1 48/2/1 47/1/1
f 59/3/1 60/4/1 49/2/1 48/1/1
f 60/3/1 61/4/1 50/2/1 49/1/1
f 61/3/1 62/4/1 51/2/1 50/1/1
f 62/3/1 63/4/1 52/2/1 51/1/1
f 64/3/1 65/4/1 54/2/1 53/1/1
f 66/3/1 67/4/1 56/2/1 55/1/1
f 68/3/1 69/4/1 58/2/1 57/1/1
f 69/3/1 70/4/1 59/2/1 58/1/1
f 70/3/1 71/4/1 60/2/1 59/1/1
f 71/3/1 72/4/1 61/2/1 60/1/1
f 72/3/1 73/4/1 62/2/1 61/1/1
f 73/3/1 74/4/1 63/2/1 62/1/1
f 75/3/1 76/4/1 65/2/1 64/1/1
f 76/3/1 78/4/1 77/2/1 65/1/1
f 79/3/1 80/4/1 67/2/1 66/1/1
f 81/3/1 82/4/1 69/2/1 68/1/1
f 82/3/1 83/4/1 70/2/1 69/1/1
f 83/3/1 84/4/1 71/2/1 70/1/1
f 84/3/1 85/4/1 72/2/1 71/1/1
f 85/3/1 86/4/1 73/2/1 72/1/1
f 86/3/1 87/4/1 74/2/1 73/1/1
f 87/3/1 89/4/1 88/2/1 74/1/1
f 90/3/1 91/4/1 78/2/1 76/1/1
f 92/3/1 93/4/1 80/2/1 79/1/1
f 94/3/1 95/4/1 82/2/1 81/1/1
f 95/3/1 96/4/1 83/2/1 82/1/1
f 96/3/1 97/4/1 84/2/1 83/1/1
f 97/3/1 98/4/1 85/2/1 84/1/1
f 98/3/1 99/4/1 86/2/1 85/1/1
f 99/3/1 100/4/1 87/2/1 86/1/1
f 100/3/1 101/4/1 89/2/1 87/1/1
f 102/3/1 103/4/1 91/2/1 90/1/1
f 104/3/1 105/4/1 93/2/1 92/1/1
f 106/3/1 107/4/1 95/2/1 94/1/1
f 107/3/1 108/4/1 96/2/1 95/1/1
f 108/3/1 109/4/1 97/2/1 96/1/1
f 109/3/1 110/4/1 98/2/1 97/1/1
f 110/3/1 111/4/1 99/2/1 98/1/1
f 111/3/1 112/4/1 100/2/1 99/1/1
f 114/3/1 115/4/1 102/2/1 113/1/1
f 115/3/1 116/4/1 103/2/1 102/1/1
f 117/3/1 118/4/1 105/2/1 104/1/1
f 119/3/1 120/4/1 107/2/1 106/1/1
f 120/3/1 121/4/1 108/2/1 107/1/1
f 121/3/1 122/4/1 109/2/1 108/1/1
f 122/3/1 123/4/1 110/2/1 109/1/1
f 123/3/1 124/4/1 111/2/1 110/1/1
f 124/3/1 125/4/1 112/2/1 111/1/1
f 126/3/1 127/4/1 115/2/1 114/1/1
f 128/3/1 129/4/1 118/2/1 117/1/1
f 130/3/1 131/4/1 120/2/1 119/1/1
f 131/3/1 132/4/1 121/2/1 120/1/1
f 132/3/1 133/4/1 122/2/1 121/1/1
f 133/3/1 134/4/1 123/2/1 122/1/1
f 134/3/1 135/4/1 124/2/1 123/1/1
f 135/3/1 136/4/1 125/2/1 124/1/1
f 137/3/1 138/4/1 127/2/1 126/1/1
f 139/3/1 140/4/1 129/2/1 128/1/1
f 141/3/1 142/4/1 131/2/1 130/1/1
f 142/3/1 143/4/1 132/2/1 131/1/1
f 143/3/1 144/4/1 133/2/1 132/1/1
f 144/3/1 145/4/1 134/2/1 133/1/1
f 145/3/1 146/4/1 135/2/1 134/1/1
f 146/3/1 147/4/1 136/2/1 135/1/1
f 148/3/1 149/4/1 138/2/1 137/1/1
f 150/3/1 151/4/1 140/2/1 139/1/1
f 151/3/1 153/4/1 152/2/1 140/1/1
f 153/3/1 155/4/1 154/2/1 152/1/1
f 156/3/1 157/4/1 144/2/1 143/1/1
f 157/3/1 158/4/1 145/2/1 144/1/1
f 161/3/1 162/4/1 160/2/1 159/1/1
f 162/3/1 163/4/1 148/2/1 160/1/1
f 163/3/1 164/4/1 149/2/1 148/1/1
f 165/3/1 166/4/1 155/2/1 153/1/1
f 166/3/1 168/4/1 167/2/1 155/1/1
f 168/3/1 169/4/1 161/2/1 167/1/1
f 169/3/1 170/4/1 162/2/1 161/1/1
f 140/7/2 152/8/2 142/6/2 141/5/2
f 151/7/3 150/8/3 172/6/3 171/5/3
f 154/7/4 155/8/4 156/6/4 143/5/4
f 153/7/3 151/8/3 171/6/3 173/5/3
f 152/7/2 154/8/2 143/6/2 142/5/2
f 165/7/5 153/8/5 173/6/5 174/5/5
f 162/7/4 170/8/4 176/6/4 175/5/4
f 166/7/3 165/8/3 174/6/3 177/5/3
f 155/7/2 167/8/2 157/6/2 156/5/2
f 168/7/3 166/8/3 177/6/3 178/5/3
f 167/7/2 161/8/2 158/6/2 157/5/2
f 169/7/3 168/8/3 178/6/3 179/5/3
f 160/7/2 148/8/2 147/6/2 146/5/2
f 170/7/3 169/8/3 179/6/3 176/5/3
f 159/7/2 160/8/2 146/6/2 145/5/2
f 161/7/5 159/8/5 145/6/5 158/5/5
f 149/7/4 164/8/4 181/6/4 180/5/4
f 163/7/3 162/8/3 175/6/3 182/5/3
f 113/7/2 102/8/2 101/6/2 100/5/2
f 164/7/3 163/8/3 182/6/3 181/5/3
f 25/7/2 27/8/2 184/6/2 183/5/2
f 148/7/5 137/8/5 136/6/5 147/5/5
f 138/7/4 149/8/4 180/6/4 185/5/4
f 137/7/5 126/8/5 125/6/5 136/5/5
f 127/7/4 138/8/4 185/6/4 186/5/4
f 126/7/5 114/8/5 112/6/5 125/5/5
f 115/7/4 127/8/4 186/6/4 187/5/4
f 114/7/5 113/8/5 100/6/5 112/5/5
f 103/7/4 116/8/4 189/6/4 188/5/4
f 116/7/3 115/8/3 187/6/3 189/5/3
f 65/7/2 77/8/2 191/6/2 190/5/2
f 102/7/5 90/8/5 89/6/5 101/5/5
f 91/7/4 103/8/4 188/6/4 192/5/4
f 90/7/5 76/8/5 88/6/5 89/5/5
f 78/7/4 91/8/4 192/6/4 193/5/4
f 76/7/3 75/8/3 74/6/3 88/5/3
f 77/7/4 78/8/4 193/6/4 191/5/4
f 75/7/5 64/8/5 63/6/5 74/5/5
f 10/7/2 25/8/2 183/6/2 194/5/2
f 64/7/5 53/8/5 52/6/5 63/5/5
f 54/7/4 65/8/4 190/6/4 195/5/4
f 53/7/5 42/8/5 41/6/5 52/5/5
f 43/7/4 54/8/4 195/6/4 196/5/4
f 42/7/5 26/8/5 40/6/5 41/5/5
f 28/7/4 43/8/4 196/6/4 197/5/4
f 26/7/3 24/8/3 38/6/3 40/5/3
f 27/7/4 28/8/4 197/6/4 184/5/4
f 24/7/3 23/8/3 22/6/3 38/5/3
f 5/7/2 7/8/2 199/6/2 198/5/2
f 23/7/5 8/8/5 21/6/5 22/5/5
f 7/7/2 9/8/2 200/6/2 199/5/2
f 8/7/3 6/8/3 18/6/3 21/5/3
f 9/7/4 10/8/4 194/6/4 200/5/4
f 6/7/3 4/8/3 17/6/3 18/5/3
f 2/7/2 5/8/2 198/6/2 201/5/2
f 15/7/3 14/8/3 31/6/3 32/5/3
f 1/7/2 2/8/2 201/6/2 202/5/2
f 3/7/5 1/8/5 202/6/5 203/5/5
f 4/7/4 16/8/4 19/6/4 17/5/4
f 16/7/3 15/8/3 32/6/3 19/5/3
f 12/7/2 3/8/2 203/6/2 204/5/2
f 29/7/5 13/8/5 206/6/5 205/5/5
f 11/7/2 12/8/2 204/6/2 207/5/2
f 13/7/5 11/8/5 207/6/5 206/5/5
f 14/7/4 30/8/4 33/6/4 31/5/4
f 44/7/5 29/8/5 205/6/5 208/5/5
f 30/7/4 45/8/4 46/6/4 33/5/4
f 55/7/5 44/8/5 208/6/5 209/5/5
f 45/7/4 56/8/4 57/6/4 46/5/4
f 66/7/5 55/8/5 209/6/5 210/5/5
f 56/7/4 67/8/4 68/6/4 57/5/4
f 79/7/5 66/8/5 210/6/5 211/5/5
f 67/7/4 80/8/4 81/6/4 68/5/4
f 92/7/5 79/8/5 211/6/5 212/5/5
f 80/7/4 93/8/4 94/6/4 81/5/4
f 104/7/5 92/8/5 212/6/5 213/5/5
f 93/7/4 105/8/4 106/6/4 94/5/4
f 117/7/5 104/8/5 213/6/5 214/5/5
f 105/7/4 118/8/4 119/6/4 106/5/4
f 128/7/5 117/8/5 214/6/5 215/5/5
f 118/7/4 129/8/4 130/6/4 119/5/4
f 139/7/5 128/8/5 215/6/5 216/5/5
f 129/7/4 140/8/4 141/6/4 130/5/4
f 150/7/5 139/8/5 216/6/5 172/5/5

