# ProBuilder 5.1.1
# https://unity3d.com/unity/features/worldbuilding/probuilder
# 28/12/2023 14:21:32

mtllib ./Model_[S].mtl
o Model [S]

g Model [S]
v 6.5 2.99995 3.5
v 6.5 2.99995 4.5
v 5.5 2.99995 3.5
v 5.5 2.99995 4.5
v 6.5 2.99995 5.5
v 5.5 2.99995 5.5
v 6.5 2.99995 6.5
v 5.5 2.99995 6.5
v 6.5 2.99995 7.5
v 5.5 2.99995 7.5
v 5.5 2.99995 -9.5
v 5.5 2.99995 -8.5
v 4.5 2.99995 -9.5
v 4.5 2.99995 -8.5
v 5.5 2.99995 -7.5
v 4.5 2.99995 -7.5
v 5.5 2.99995 -6.5
v 4.5 2.99995 -6.5
v 5.5 2.99995 -5.5
v 4.5 2.99995 -5.5
v 5.5 2.99995 -4.5
v 4.5 2.99995 -4.5
v 5.5 2.99995 -3.5
v 4.5 2.99995 -3.5
v 5.5 2.99995 -2.5
v 4.5 2.99995 -2.5
v 5.5 2.99995 -1.5
v 4.5 2.99995 -1.5
v 5.5 2.99995 -0.5
v 4.5 2.99995 -0.5
v 5.5 2.99995 0.5
v 4.5 2.99995 0.5
v 5.5 2.99995 1.5
v 4.5 2.99995 1.5
v 5.5 2.99995 2.5
v 4.5 2.99995 2.5
v 4.5 2.99995 3.5
v 4.5 2.99995 4.5
v 5.5 4.994869E-05 4.5
v 5.5 4.994869E-05 5.5
v 4.5 4.994869E-05 4.5
v 4.5 4.994869E-05 5.5
v 5.5 4.994869E-05 6.5
v 4.5 4.994869E-05 6.5
v 4.5 2.99995 6.5
v 4.5 2.99995 7.5
v 5.5 2.99995 8.5
v 4.5 2.99995 8.5
v 5.5 2.99995 9.5
v 4.5 2.99995 9.5
v 3.5 2.99995 -9.5
v 3.5 2.99995 -8.5
v 4.5 4.994869E-05 -8.5
v 4.5 4.994869E-05 -7.5
v 3.5 4.994869E-05 -8.5
v 3.5 4.994869E-05 -7.5
v 4.5 4.994869E-05 -6.5
v 3.5 4.994869E-05 -6.5
v 4.5 4.994869E-05 -5.5
v 3.5 4.994869E-05 -5.5
v 4.5 4.994869E-05 -4.5
v 3.5 4.994869E-05 -4.5
v 4.5 4.994869E-05 -3.5
v 3.5 4.994869E-05 -3.5
v 4.5 4.994869E-05 -2.5
v 3.5 4.994869E-05 -2.5
v 4.5 4.994869E-05 -1.5
v 3.5 4.994869E-05 -1.5
v 4.5 4.994869E-05 -0.5
v 3.5 4.994869E-05 -0.5
v 4.5 4.994869E-05 0.5
v 3.5 4.994869E-05 0.5
v 4.5 4.994869E-05 1.5
v 3.5 4.994869E-05 1.5
v 4.5 4.994869E-05 2.5
v 3.5 4.994869E-05 2.5
v 4.5 4.994869E-05 3.5
v 3.5 4.994869E-05 3.5
v 3.5 4.994869E-05 4.5
v 3.5 4.994869E-05 5.5
v 3.5 4.994869E-05 6.5
v 4.5 4.994869E-05 7.5
v 3.5 4.994869E-05 7.5
v 4.5 4.994869E-05 8.5
v 3.5 4.994869E-05 8.5
v 3.5 2.99995 8.5
v 3.5 2.99995 9.5
v 2.5 2.99995 -9.5
v 2.5 2.99995 -8.5
v 2.5 4.994869E-05 -8.5
v 2.5 4.994869E-05 -7.5
v 2.5 4.994869E-05 -6.5
v 2.5 4.994869E-05 -5.5
v 2.5 4.994869E-05 -4.5
v 2.5 4.994869E-05 -3.5
v 2.5 4.994869E-05 -2.5
v 2.5 4.994869E-05 -1.5
v 2.5 4.994869E-05 -0.5
v 2.5 4.994869E-05 0.5
v 2.5 4.994869E-05 1.5
v 2.5 4.994869E-05 2.5
v 2.5 4.994869E-05 3.5
v 2.5 4.994869E-05 4.5
v 2.5 4.994869E-05 5.5
v 2.5 4.994869E-05 6.5
v 2.5 4.994869E-05 7.5
v 2.5 4.994869E-05 8.5
v 2.5 2.99995 8.5
v 2.5 2.99995 9.5
v 1.5 2.99995 -9.5
v 1.5 2.99995 -8.5
v 2.5 2.99995 -7.5
v 1.5 2.99995 -7.5
v 1.5 4.994869E-05 -7.5
v 1.5 4.994869E-05 -6.5
v 1.5 4.994869E-05 -5.5
v 1.5 4.994869E-05 -4.5
v 1.5 4.994869E-05 -3.5
v 1.5 4.994869E-05 -2.5
v 1.5 4.994869E-05 -1.5
v 1.5 4.994869E-05 -0.5
v 1.5 4.994869E-05 0.5
v 1.5 4.994869E-05 1.5
v 1.5 4.994869E-05 2.5
v 1.5 4.994869E-05 3.5
v 1.5 4.994869E-05 4.5
v 1.5 4.994869E-05 5.5
v 1.5 4.994869E-05 6.5
v 1.5 4.994869E-05 7.5
v 1.5 4.994869E-05 8.5
v 1.5 2.99995 8.5
v 1.5 2.99995 9.5
v 0.5 2.99995 -8.5
v 0.5 2.99995 -7.5
v 0.5 4.994869E-05 -7.5
v 0.5 4.994869E-05 -6.5
v 0.5 4.994869E-05 -5.5
v 0.5 4.994869E-05 -4.5
v 0.5 4.994869E-05 -3.5
v 0.5 4.994869E-05 -2.5
v 0.5 4.994869E-05 -1.5
v 0.5 4.994869E-05 -0.5
v 0.5 4.994869E-05 0.5
v 0.5 4.994869E-05 1.5
v 0.5 4.994869E-05 2.5
v 0.5 4.994869E-05 3.5
v 0.5 4.994869E-05 4.5
v 0.5 4.994869E-05 5.5
v 0.5 4.994869E-05 6.5
v 0.5 4.994869E-05 7.5
v 0.5 4.994869E-05 8.5
v 0.5 2.99995 8.5
v 0.5 2.99995 9.5
v -0.5 2.99995 -8.5
v -0.5 2.99995 -7.5
v -0.5 4.994869E-05 -7.5
v -0.5 4.994869E-05 -6.5
v -0.5 4.994869E-05 -5.5
v -0.5 4.994869E-05 -4.5
v -0.5 4.994869E-05 -3.5
v -0.5 4.994869E-05 -2.5
v -0.5 4.994869E-05 -1.5
v -0.5 4.994869E-05 -0.5
v -0.5 4.994869E-05 0.5
v -0.5 4.994869E-05 1.5
v -0.5 4.994869E-05 2.5
v -0.5 4.994869E-05 3.5
v -0.5 4.994869E-05 4.5
v -0.5 4.994869E-05 5.5
v -0.5 4.994869E-05 6.5
v -0.5 4.994869E-05 7.5
v -0.5 4.994869E-05 8.5
v -0.5 2.99995 8.5
v -0.5 2.99995 9.5
v -1.5 2.99995 -8.5
v -1.5 2.99995 -7.5
v -1.5 4.994869E-05 -7.5
v -1.5 4.994869E-05 -6.5
v -1.5 4.994869E-05 -5.5
v -1.5 4.994869E-05 -4.5
v -1.5 4.994869E-05 -3.5
v -1.5 4.994869E-05 -2.5
v -1.5 4.994869E-05 -1.5
v -1.5 4.994869E-05 -0.5
v -1.5 4.994869E-05 0.5
v -1.5 4.994869E-05 1.5
v -1.5 4.994869E-05 2.5
v -1.5 4.994869E-05 3.5
v -1.5 4.994869E-05 4.5
v -1.5 4.994869E-05 5.5
v -1.5 4.994869E-05 6.5
v -1.5 4.994869E-05 7.5
v -1.5 4.994869E-05 8.5
v -1.5 2.99995 8.5
v -1.5 2.99995 9.5
v -2.5 2.99995 -8.5
v -2.5 2.99995 -7.5
v -2.5 4.994869E-05 -7.5
v -2.5 4.994869E-05 -6.5
v -2.5 4.994869E-05 -5.5
v -2.5 4.994869E-05 -4.5
v -2.5 4.994869E-05 -3.5
v -2.5 4.994869E-05 -2.5
v -2.5 4.994869E-05 -1.5
v -2.5 4.994869E-05 -0.5
v -2.5 4.994869E-05 0.5
v -1.5 2.99995 0.5
v -1.5 2.99995 1.5
v -2.5 2.99995 0.5
v -2.5 2.99995 1.5
v -1.5 2.99995 2.5
v -2.5 2.99995 2.5
v -2.5 4.994869E-05 2.5
v -2.5 4.994869E-05 3.5
v -2.5 4.994869E-05 4.5
v -1.5 2.99995 4.5
v -1.5 2.99995 5.5
v -2.5 2.99995 4.5
v -2.5 2.99995 5.5
v -1.5 2.99995 6.5
v -2.5 2.99995 6.5
v -1.5 2.99995 7.5
v -2.5 2.99995 7.5
v -2.5 2.99995 8.5
v -2.5 2.99995 9.5
v -3.5 2.99995 -8.5
v -3.5 2.99995 -7.5
v -3.5 4.994869E-05 -7.5
v -3.5 4.994869E-05 -6.5
v -3.5 4.994869E-05 -5.5
v -3.5 4.994869E-05 -4.5
v -3.5 4.994869E-05 -3.5
v -3.5 4.994869E-05 -2.5
v -3.5 4.994869E-05 -1.5
v -3.5 4.994869E-05 -0.5
v -3.5 4.994869E-05 0.5
v -2.5 4.994869E-05 1.5
v -3.5 4.994869E-05 1.5
v -3.5 2.99995 1.5
v -3.5 2.99995 2.5
v -2.5 2.99995 3.5
v -3.5 2.99995 3.5
v -3.5 2.99995 4.5
v -3.5 2.99995 5.5
v -4.5 2.99995 -8.5
v -4.5 2.99995 -7.5
v -4.5 4.994869E-05 -7.5
v -4.5 4.994869E-05 -6.5
v -4.5 4.994869E-05 -5.5
v -4.5 4.994869E-05 -4.5
v -4.5 4.994869E-05 -3.5
v -4.5 4.994869E-05 -2.5
v -4.5 4.994869E-05 -1.5
v -4.5 4.994869E-05 -0.5
v -4.5 4.994869E-05 0.5
v -4.5 4.994869E-05 1.5
v -4.5 2.99995 1.5
v -4.5 2.99995 2.5
v -5.5 2.99995 -8.5
v -5.5 2.99995 -7.5
v -5.5 4.994869E-05 -7.5
v -5.5 4.994869E-05 -6.5
v -5.5 4.994869E-05 -5.5
v -5.5 4.994869E-05 -4.5
v -5.5 4.994869E-05 -3.5
v -5.5 4.994869E-05 -2.5
v -5.5 4.994869E-05 -1.5
v -5.5 4.994869E-05 -0.5
v -5.5 4.994869E-05 0.5
v -4.5 2.99995 0.5
v -5.5 2.99995 0.5
v -5.5 2.99995 1.5
v -5.5 2.99995 2.5
v -6.5 2.99995 -8.5
v -6.5 2.99995 -7.5
v -5.5 2.99995 -6.5
v -6.5 2.99995 -6.5
v -5.5 2.99995 -5.5
v -6.5 2.99995 -5.5
v -5.5 2.99995 -4.5
v -6.5 2.99995 -4.5
v -5.5 2.99995 -3.5
v -6.5 2.99995 -3.5
v -5.5 2.99995 -2.5
v -6.5 2.99995 -2.5
v -5.5 2.99995 -1.5
v -6.5 2.99995 -1.5
v -5.5 2.99995 -0.5
v -6.5 2.99995 -0.5
v -6.5 2.99995 0.5
v -6.5 2.99995 1.5
v -6.5 4.994869E-05 -8.5
v -5.5 4.994869E-05 -8.5
v -6.5 4.994869E-05 -7.5
v 5.5 4.994869E-05 -8.5
v 5.5 4.994869E-05 -7.5
v -4.5 4.994869E-05 -8.5
v -3.5 4.994869E-05 -8.5
v -2.5 4.994869E-05 -8.5
v -1.5 4.994869E-05 -8.5
v -0.5 4.994869E-05 -8.5
v 0.5 4.994869E-05 -8.5
v 1.5 4.994869E-05 -8.5
v 1.5 4.994869E-05 -9.5
v 2.5 4.994869E-05 -9.5
v 5.5 4.994869E-05 -9.5
v 3.5 4.994869E-05 -9.5
v 4.5 4.994869E-05 -9.5
v 5.5 4.994869E-05 -6.5
v 5.5 4.994869E-05 -5.5
v 5.5 4.994869E-05 -4.5
v 5.5 4.994869E-05 -3.5
v 5.5 4.994869E-05 -2.5
v 5.5 4.994869E-05 -1.5
v 5.5 4.994869E-05 -0.5
v 5.5 4.994869E-05 0.5
v 5.5 4.994869E-05 1.5
v 5.5 4.994869E-05 2.5
v 5.5 4.994869E-05 3.5
v 6.5 4.994869E-05 4.5
v 6.5 4.994869E-05 5.5
v 6.5 4.994869E-05 3.5
v 6.5 4.994869E-05 7.5
v 5.5 4.994869E-05 7.5
v 6.5 4.994869E-05 6.5
v 5.5 4.994869E-05 9.5
v 4.5 4.994869E-05 9.5
v 5.5 4.994869E-05 8.5
v 3.5 4.994869E-05 9.5
v 2.5 4.994869E-05 9.5
v 1.5 4.994869E-05 9.5
v 0.5 4.994869E-05 9.5
v -0.5 4.994869E-05 9.5
v -1.5 4.994869E-05 9.5
v -2.5 4.994869E-05 8.5
v -2.5 4.994869E-05 7.5
v -2.5 4.994869E-05 9.5
v -2.5 4.994869E-05 6.5
v -2.5 4.994869E-05 5.5
v -3.5 4.994869E-05 4.5
v -3.5 4.994869E-05 3.5
v -3.5 4.994869E-05 5.5
v -3.5 4.994869E-05 2.5
v -4.5 4.994869E-05 2.5
v -6.5 4.994869E-05 0.5
v -6.5 4.994869E-05 -0.5
v -5.5 4.994869E-05 2.5
v -5.5 4.994869E-05 1.5
v -6.5 4.994869E-05 1.5
v -6.5 4.994869E-05 -1.5
v -6.5 4.994869E-05 -2.5
v -6.5 4.994869E-05 -3.5
v -6.5 4.994869E-05 -4.5
v -6.5 4.994869E-05 -5.5
v -6.5 4.994869E-05 -6.5

vt 0 0
vt 0 1
vt 1 0
vt 1 1
vt 1 -0.9999501
vt 0 -0.9999501
vt 1 1.99995
vt 0 1.99995

vn 0 1 0
vn 1 0 0
vn 0 0 -1
vn -1 0 0
vn 0 0 1

usemtl ProBuilderDefault
f 3/3/1 4/4/1 2/2/1 1/1/1
f 4/3/1 6/4/1 5/2/1 2/1/1
f 6/3/1 8/4/1 7/2/1 5/1/1
f 8/3/1 10/4/1 9/2/1 7/1/1
f 13/3/1 14/4/1 12/2/1 11/1/1
f 14/3/1 16/4/1 15/2/1 12/1/1
f 16/3/1 18/4/1 17/2/1 15/1/1
f 18/3/1 20/4/1 19/2/1 17/1/1
f 20/3/1 22/4/1 21/2/1 19/1/1
f 22/3/1 24/4/1 23/2/1 21/1/1
f 24/3/1 26/4/1 25/2/1 23/1/1
f 26/3/1 28/4/1 27/2/1 25/1/1
f 28/3/1 30/4/1 29/2/1 27/1/1
f 30/3/1 32/4/1 31/2/1 29/1/1
f 32/3/1 34/4/1 33/2/1 31/1/1
f 34/3/1 36/4/1 35/2/1 33/1/1
f 36/3/1 37/4/1 3/2/1 35/1/1
f 37/3/1 38/4/1 4/2/1 3/1/1
f 41/3/1 42/4/1 40/2/1 39/1/1
f 42/3/1 44/4/1 43/2/1 40/1/1
f 45/3/1 46/4/1 10/2/1 8/1/1
f 46/3/1 48/4/1 47/2/1 10/1/1
f 48/3/1 50/4/1 49/2/1 47/1/1
f 51/3/1 52/4/1 14/2/1 13/1/1
f 55/3/1 56/4/1 54/2/1 53/1/1
f 56/3/1 58/4/1 57/2/1 54/1/1
f 58/3/1 60/4/1 59/2/1 57/1/1
f 60/3/1 62/4/1 61/2/1 59/1/1
f 62/3/1 64/4/1 63/2/1 61/1/1
f 64/3/1 66/4/1 65/2/1 63/1/1
f 66/3/1 68/4/1 67/2/1 65/1/1
f 68/3/1 70/4/1 69/2/1 67/1/1
f 70/3/1 72/4/1 71/2/1 69/1/1
f 72/3/1 74/4/1 73/2/1 71/1/1
f 74/3/1 76/4/1 75/2/1 73/1/1
f 76/3/1 78/4/1 77/2/1 75/1/1
f 78/3/1 79/4/1 41/2/1 77/1/1
f 79/3/1 80/4/1 42/2/1 41/1/1
f 80/3/1 81/4/1 44/2/1 42/1/1
f 81/3/1 83/4/1 82/2/1 44/1/1
f 83/3/1 85/4/1 84/2/1 82/1/1
f 86/3/1 87/4/1 50/2/1 48/1/1
f 88/3/1 89/4/1 52/2/1 51/1/1
f 90/3/1 91/4/1 56/2/1 55/1/1
f 91/3/1 92/4/1 58/2/1 56/1/1
f 92/3/1 93/4/1 60/2/1 58/1/1
f 93/3/1 94/4/1 62/2/1 60/1/1
f 94/3/1 95/4/1 64/2/1 62/1/1
f 95/3/1 96/4/1 66/2/1 64/1/1
f 96/3/1 97/4/1 68/2/1 66/1/1
f 97/3/1 98/4/1 70/2/1 68/1/1
f 98/3/1 99/4/1 72/2/1 70/1/1
f 99/3/1 100/4/1 74/2/1 72/1/1
f 100/3/1 101/4/1 76/2/1 74/1/1
f 101/3/1 102/4/1 78/2/1 76/1/1
f 102/3/1 103/4/1 79/2/1 78/1/1
f 103/3/1 104/4/1 80/2/1 79/1/1
f 104/3/1 105/4/1 81/2/1 80/1/1
f 105/3/1 106/4/1 83/2/1 81/1/1
f 106/3/1 107/4/1 85/2/1 83/1/1
f 108/3/1 109/4/1 87/2/1 86/1/1
f 110/3/1 111/4/1 89/2/1 88/1/1
f 111/3/1 113/4/1 112/2/1 89/1/1
f 114/3/1 115/4/1 92/2/1 91/1/1
f 115/3/1 116/4/1 93/2/1 92/1/1
f 116/3/1 117/4/1 94/2/1 93/1/1
f 117/3/1 118/4/1 95/2/1 94/1/1
f 118/3/1 119/4/1 96/2/1 95/1/1
f 119/3/1 120/4/1 97/2/1 96/1/1
f 120/3/1 121/4/1 98/2/1 97/1/1
f 121/3/1 122/4/1 99/2/1 98/1/1
f 122/3/1 123/4/1 100/2/1 99/1/1
f 123/3/1 124/4/1 101/2/1 100/1/1
f 124/3/1 125/4/1 102/2/1 101/1/1
f 125/3/1 126/4/1 103/2/1 102/1/1
f 126/3/1 127/4/1 104/2/1 103/1/1
f 127/3/1 128/4/1 105/2/1 104/1/1
f 128/3/1 129/4/1 106/2/1 105/1/1
f 129/3/1 130/4/1 107/2/1 106/1/1
f 131/3/1 132/4/1 109/2/1 108/1/1
f 133/3/1 134/4/1 113/2/1 111/1/1
f 135/3/1 136/4/1 115/2/1 114/1/1
f 136/3/1 137/4/1 116/2/1 115/1/1
f 137/3/1 138/4/1 117/2/1 116/1/1
f 138/3/1 139/4/1 118/2/1 117/1/1
f 139/3/1 140/4/1 119/2/1 118/1/1
f 140/3/1 141/4/1 120/2/1 119/1/1
f 141/3/1 142/4/1 121/2/1 120/1/1
f 142/3/1 143/4/1 122/2/1 121/1/1
f 143/3/1 144/4/1 123/2/1 122/1/1
f 144/3/1 145/4/1 124/2/1 123/1/1
f 145/3/1 146/4/1 125/2/1 124/1/1
f 146/3/1 147/4/1 126/2/1 125/1/1
f 147/3/1 148/4/1 127/2/1 126/1/1
f 148/3/1 149/4/1 128/2/1 127/1/1
f 149/3/1 150/4/1 129/2/1 128/1/1
f 150/3/1 151/4/1 130/2/1 129/1/1
f 152/3/1 153/4/1 132/2/1 131/1/1
f 154/3/1 155/4/1 134/2/1 133/1/1
f 156/3/1 157/4/1 136/2/1 135/1/1
f 157/3/1 158/4/1 137/2/1 136/1/1
f 158/3/1 159/4/1 138/2/1 137/1/1
f 159/3/1 160/4/1 139/2/1 138/1/1
f 160/3/1 161/4/1 140/2/1 139/1/1
f 161/3/1 162/4/1 141/2/1 140/1/1
f 162/3/1 163/4/1 142/2/1 141/1/1
f 163/3/1 164/4/1 143/2/1 142/1/1
f 164/3/1 165/4/1 144/2/1 143/1/1
f 165/3/1 166/4/1 145/2/1 144/1/1
f 166/3/1 167/4/1 146/2/1 145/1/1
f 167/3/1 168/4/1 147/2/1 146/1/1
f 168/3/1 169/4/1 148/2/1 147/1/1
f 169/3/1 170/4/1 149/2/1 148/1/1
f 170/3/1 171/4/1 150/2/1 149/1/1
f 171/3/1 172/4/1 151/2/1 150/1/1
f 173/3/1 174/4/1 153/2/1 152/1/1
f 175/3/1 176/4/1 155/2/1 154/1/1
f 177/3/1 178/4/1 157/2/1 156/1/1
f 178/3/1 179/4/1 158/2/1 157/1/1
f 179/3/1 180/4/1 159/2/1 158/1/1
f 180/3/1 181/4/1 160/2/1 159/1/1
f 181/3/1 182/4/1 161/2/1 160/1/1
f 182/3/1 183/4/1 162/2/1 161/1/1
f 183/3/1 184/4/1 163/2/1 162/1/1
f 184/3/1 185/4/1 164/2/1 163/1/1
f 185/3/1 186/4/1 165/2/1 164/1/1
f 186/3/1 187/4/1 166/2/1 165/1/1
f 187/3/1 188/4/1 167/2/1 166/1/1
f 188/3/1 189/4/1 168/2/1 167/1/1
f 189/3/1 190/4/1 169/2/1 168/1/1
f 190/3/1 191/4/1 170/2/1 169/1/1
f 191/3/1 192/4/1 171/2/1 170/1/1
f 192/3/1 193/4/1 172/2/1 171/1/1
f 194/3/1 195/4/1 174/2/1 173/1/1
f 196/3/1 197/4/1 176/2/1 175/1/1
f 198/3/1 199/4/1 178/2/1 177/1/1
f 199/3/1 200/4/1 179/2/1 178/1/1
f 200/3/1 201/4/1 180/2/1 179/1/1
f 201/3/1 202/4/1 181/2/1 180/1/1
f 202/3/1 203/4/1 182/2/1 181/1/1
f 203/3/1 204/4/1 183/2/1 182/1/1
f 204/3/1 205/4/1 184/2/1 183/1/1
f 205/3/1 206/4/1 185/2/1 184/1/1
f 209/3/1 210/4/1 208/2/1 207/1/1
f 210/3/1 212/4/1 211/2/1 208/1/1
f 213/3/1 214/4/1 188/2/1 187/1/1
f 214/3/1 215/4/1 189/2/1 188/1/1
f 218/3/1 219/4/1 217/2/1 216/1/1
f 219/3/1 221/4/1 220/2/1 217/1/1
f 221/3/1 223/4/1 222/2/1 220/1/1
f 223/3/1 224/4/1 194/2/1 222/1/1
f 224/3/1 225/4/1 195/2/1 194/1/1
f 226/3/1 227/4/1 197/2/1 196/1/1
f 228/3/1 229/4/1 199/2/1 198/1/1
f 229/3/1 230/4/1 200/2/1 199/1/1
f 230/3/1 231/4/1 201/2/1 200/1/1
f 231/3/1 232/4/1 202/2/1 201/1/1
f 232/3/1 233/4/1 203/2/1 202/1/1
f 233/3/1 234/4/1 204/2/1 203/1/1
f 234/3/1 235/4/1 205/2/1 204/1/1
f 235/3/1 236/4/1 206/2/1 205/1/1
f 236/3/1 238/4/1 237/2/1 206/1/1
f 239/3/1 240/4/1 212/2/1 210/1/1
f 240/3/1 242/4/1 241/2/1 212/1/1
f 242/3/1 243/4/1 218/2/1 241/1/1
f 243/3/1 244/4/1 219/2/1 218/1/1
f 245/3/1 246/4/1 227/2/1 226/1/1
f 247/3/1 248/4/1 229/2/1 228/1/1
f 248/3/1 249/4/1 230/2/1 229/1/1
f 249/3/1 250/4/1 231/2/1 230/1/1
f 250/3/1 251/4/1 232/2/1 231/1/1
f 251/3/1 252/4/1 233/2/1 232/1/1
f 252/3/1 253/4/1 234/2/1 233/1/1
f 253/3/1 254/4/1 235/2/1 234/1/1
f 254/3/1 255/4/1 236/2/1 235/1/1
f 255/3/1 256/4/1 238/2/1 236/1/1
f 257/3/1 258/4/1 240/2/1 239/1/1
f 259/3/1 260/4/1 246/2/1 245/1/1
f 261/3/1 262/4/1 248/2/1 247/1/1
f 262/3/1 263/4/1 249/2/1 248/1/1
f 263/3/1 264/4/1 250/2/1 249/1/1
f 264/3/1 265/4/1 251/2/1 250/1/1
f 265/3/1 266/4/1 252/2/1 251/1/1
f 266/3/1 267/4/1 253/2/1 252/1/1
f 267/3/1 268/4/1 254/2/1 253/1/1
f 268/3/1 269/4/1 255/2/1 254/1/1
f 271/3/1 272/4/1 257/2/1 270/1/1
f 272/3/1 273/4/1 258/2/1 257/1/1
f 274/3/1 275/4/1 260/2/1 259/1/1
f 275/3/1 277/4/1 276/2/1 260/1/1
f 277/3/1 279/4/1 278/2/1 276/1/1
f 279/3/1 281/4/1 280/2/1 278/1/1
f 281/3/1 283/4/1 282/2/1 280/1/1
f 283/3/1 285/4/1 284/2/1 282/1/1
f 285/3/1 287/4/1 286/2/1 284/1/1
f 287/3/1 289/4/1 288/2/1 286/1/1
f 289/3/1 290/4/1 271/2/1 288/1/1
f 290/3/1 291/4/1 272/2/1 271/1/1
f 89/7/2 112/8/2 91/6/2 90/5/2
f 274/7/3 259/8/3 293/6/3 292/5/3
f 208/7/2 211/8/2 187/6/2 186/5/2
f 275/7/4 274/8/4 292/6/4 294/5/4
f 12/7/2 15/8/2 296/6/2 295/5/2
f 259/7/3 245/8/3 297/6/3 293/5/3
f 246/7/5 260/8/5 261/6/5 247/5/5
f 245/7/3 226/8/3 298/6/3 297/5/3
f 227/7/5 246/8/5 247/6/5 228/5/5
f 226/7/3 196/8/3 299/6/3 298/5/3
f 197/7/5 227/8/5 228/6/5 198/5/5
f 196/7/3 175/8/3 300/6/3 299/5/3
f 176/7/5 197/8/5 198/6/5 177/5/5
f 175/7/3 154/8/3 301/6/3 300/5/3
f 155/7/5 176/8/5 177/6/5 156/5/5
f 154/7/3 133/8/3 302/6/3 301/5/3
f 134/7/5 155/8/5 156/6/5 135/5/5
f 133/7/3 111/8/3 303/6/3 302/5/3
f 113/7/5 134/8/5 135/6/5 114/5/5
f 111/7/4 110/8/4 304/6/4 303/5/4
f 112/7/5 113/8/5 114/6/5 91/5/5
f 110/7/3 88/8/3 305/6/3 304/5/3
f 11/7/2 12/8/2 295/6/2 306/5/2
f 88/7/3 51/8/3 307/6/3 305/5/3
f 52/7/5 89/8/5 90/6/5 55/5/5
f 51/7/3 13/8/3 308/6/3 307/5/3
f 14/7/5 52/8/5 55/6/5 53/5/5
f 13/7/3 11/8/3 306/6/3 308/5/3
f 4/7/5 38/8/5 41/6/5 39/5/5
f 16/7/4 14/8/4 53/6/4 54/5/4
f 15/7/2 17/8/2 309/6/2 296/5/2
f 18/7/4 16/8/4 54/6/4 57/5/4
f 17/7/2 19/8/2 310/6/2 309/5/2
f 20/7/4 18/8/4 57/6/4 59/5/4
f 19/7/2 21/8/2 311/6/2 310/5/2
f 22/7/4 20/8/4 59/6/4 61/5/4
f 21/7/2 23/8/2 312/6/2 311/5/2
f 24/7/4 22/8/4 61/6/4 63/5/4
f 23/7/2 25/8/2 313/6/2 312/5/2
f 26/7/4 24/8/4 63/6/4 65/5/4
f 25/7/2 27/8/2 314/6/2 313/5/2
f 28/7/4 26/8/4 65/6/4 67/5/4
f 27/7/2 29/8/2 315/6/2 314/5/2
f 30/7/4 28/8/4 67/6/4 69/5/4
f 29/7/2 31/8/2 316/6/2 315/5/2
f 32/7/4 30/8/4 69/6/4 71/5/4
f 31/7/2 33/8/2 317/6/2 316/5/2
f 34/7/4 32/8/4 71/6/4 73/5/4
f 33/7/2 35/8/2 318/6/2 317/5/2
f 36/7/4 34/8/4 73/6/4 75/5/4
f 35/7/2 3/8/2 319/6/2 318/5/2
f 37/7/4 36/8/4 75/6/4 77/5/4
f 2/7/2 5/8/2 321/6/2 320/5/2
f 38/7/4 37/8/4 77/6/4 41/5/4
f 1/7/2 2/8/2 320/6/2 322/5/2
f 3/7/3 1/8/3 322/6/3 319/5/3
f 9/7/5 10/8/5 324/6/5 323/5/5
f 6/7/4 4/8/4 39/6/4 40/5/4
f 5/7/2 7/8/2 325/6/2 321/5/2
f 8/7/4 6/8/4 40/6/4 43/5/4
f 7/7/2 9/8/2 323/6/2 325/5/2
f 45/7/3 8/8/3 43/6/3 44/5/3
f 49/7/5 50/8/5 327/6/5 326/5/5
f 46/7/4 45/8/4 44/6/4 82/5/4
f 10/7/2 47/8/2 328/6/2 324/5/2
f 48/7/4 46/8/4 82/6/4 84/5/4
f 47/7/2 49/8/2 326/6/2 328/5/2
f 86/7/3 48/8/3 84/6/3 85/5/3
f 50/7/5 87/8/5 329/6/5 327/5/5
f 108/7/3 86/8/3 85/6/3 107/5/3
f 87/7/5 109/8/5 330/6/5 329/5/5
f 131/7/3 108/8/3 107/6/3 130/5/3
f 109/7/5 132/8/5 331/6/5 330/5/5
f 152/7/3 131/8/3 130/6/3 151/5/3
f 132/7/5 153/8/5 332/6/5 331/5/5
f 173/7/3 152/8/3 151/6/3 172/5/3
f 153/7/5 174/8/5 333/6/5 332/5/5
f 194/7/3 173/8/3 172/6/3 193/5/3
f 174/7/5 195/8/5 334/6/5 333/5/5
f 224/7/4 223/8/4 336/6/4 335/5/4
f 195/7/5 225/8/5 337/6/5 334/5/5
f 225/7/4 224/8/4 335/6/4 337/5/4
f 222/7/2 194/8/2 193/6/2 192/5/2
f 223/7/4 221/8/4 338/6/4 336/5/4
f 220/7/2 222/8/2 192/6/2 191/5/2
f 221/7/4 219/8/4 339/6/4 338/5/4
f 217/7/2 220/8/2 191/6/2 190/5/2
f 243/7/4 242/8/4 341/6/4 340/5/4
f 216/7/2 217/8/2 190/6/2 189/5/2
f 218/7/3 216/8/3 189/6/3 215/5/3
f 219/7/5 244/8/5 342/6/5 339/5/5
f 244/7/4 243/8/4 340/6/4 342/5/4
f 241/7/2 218/8/2 215/6/2 214/5/2
f 242/7/4 240/8/4 343/6/4 341/5/4
f 212/7/2 241/8/2 214/6/2 213/5/2
f 257/7/3 239/8/3 238/6/3 256/5/3
f 207/7/2 208/8/2 186/6/2 185/5/2
f 239/7/3 210/8/3 237/6/3 238/5/3
f 240/7/5 258/8/5 344/6/5 343/5/5
f 290/7/4 289/8/4 346/6/4 345/5/4
f 258/7/5 273/8/5 347/6/5 344/5/5
f 273/7/4 272/8/4 348/6/4 347/5/4
f 270/7/2 257/8/2 256/6/2 255/5/2
f 271/7/3 270/8/3 255/6/3 269/5/3
f 272/7/5 291/8/5 349/6/5 348/5/5
f 291/7/4 290/8/4 345/6/4 349/5/4
f 288/7/2 271/8/2 269/6/2 268/5/2
f 289/7/4 287/8/4 350/6/4 346/5/4
f 286/7/2 288/8/2 268/6/2 267/5/2
f 287/7/4 285/8/4 351/6/4 350/5/4
f 284/7/2 286/8/2 267/6/2 266/5/2
f 285/7/4 283/8/4 352/6/4 351/5/4
f 282/7/2 284/8/2 266/6/2 265/5/2
f 283/7/4 281/8/4 353/6/4 352/5/4
f 280/7/2 282/8/2 265/6/2 264/5/2
f 281/7/4 279/8/4 354/6/4 353/5/4
f 278/7/2 280/8/2 264/6/2 263/5/2
f 279/7/4 277/8/4 355/6/4 354/5/4
f 276/7/2 278/8/2 263/6/2 262/5/2
f 277/7/4 275/8/4 294/6/4 355/5/4
f 260/7/2 276/8/2 262/6/2 261/5/2
f 210/7/4 209/8/4 206/6/4 237/5/4
f 211/7/5 212/8/5 213/6/5 187/5/5
f 209/7/3 207/8/3 185/6/3 206/5/3

